<?xml version="1.0" encoding="UTF-8"?>
<!-- Generator: Adobe Illustrator 23.0.1, SVG Export Plug-In . SVG Version: 6.00 Build 0)  -->
<svg version="1.1" id="Layer_1" xmlns="http://www.w3.org/2000/svg" xmlns:xlink="http://www.w3.org/1999/xlink" x="0px" y="0px" viewBox="0 0 261.4 43.8" style="enable-background:new 0 0 261.4 43.8;" xml:space="preserve">
<g>
	<path d="M37,35v5.9H0V35H37z M26.8,8.3H3V2.4h31v16.3c0,6.5-1,11.7-2.4,13.5h-6c0.8-1.9,1.2-6.4,1.2-8.9H3.2v-5.8h23.6V8.3z"/>
	<path d="M39.4,39.5V17.8h13.2V7.5H39.4V1.8h20.4v21.6H46.6v10.3h9.4c3.2,0,6.7,0,9.4-1.4V0.6h7.2v43.2h-7.2v-6.5   c-2.1,1.8-6.5,2.2-10.5,2.2H39.4z"/>
	<path d="M111.8,35v5.9h-37V35H111.8z M97.2,7c0,1.6-0.2,3.2-0.6,4.7c2.6,3,10,8.6,14.6,11.6l-2.9,5.1c-3.2-1.6-10.9-6.5-14.9-10   c-3.7,5.2-9.6,9.1-15.3,10.5L75.6,24c7.2-2.9,13.9-8.9,13.9-17V2.3h7.7V7z"/>
	<path d="M128.7,11.3c0,0.9-0.1,1.7-0.2,2.4c2.3,2.8,5.9,5.9,8.9,8l-3,5.3c-2.4-1.3-6-3.8-8.6-6.2c-2.6,3.6-6.6,6-10.6,6.8l-2.8-4.8   c4.6-2.2,9-5.3,9-11.5V9.9H114V4h7.2V0h7.4v4h7.2v5.9h-7.2V11.3z M149.3,43.8h-31.9V28.9h7.3V38h24.6V43.8z M148.3,31.3h-7.2V17.5   h-6.2v-6.3h6.2V0.6h7.2V31.3z"/>
	<path d="M187.7,26.9v5.8h-14.9v11.1h-7.2V32.6h-14.9v-5.8H187.7z M184.4,10.3v5.4h-23.6v2.7h24.1v5.5h-31.3V2h31.3v5.6h-24.1v2.7   H184.4z"/>
	<path d="M189.8,39.5V1.8h14.9v5.8H197v26.2h4.5c2.2,0,3.5-0.2,5.9-0.9l0.2,5c-1.9,1.3-4.8,1.6-7.2,1.6H189.8z M209,0.6h6.6v43.2   H209V22.7h-7.2v-6.3h7.2V0.6z M224.7,0.6v43.2h-6.8V0.6H224.7z"/>
	<path d="M227.3,20.8c0-13.6,3.6-19.9,11.6-19.9c8,0,11.7,6.2,11.7,19.9c0,13.6-3.7,19.9-11.7,19.9   C230.9,40.7,227.3,34.4,227.3,20.8z M234.3,20.8c0,9,1.5,13.5,4.6,13.5c3,0,4.6-4.6,4.6-13.5c0-9-1.6-13.5-4.6-13.5   C235.9,7.2,234.3,11.8,234.3,20.8z M254.2,0.6h7.2v43.2h-7.2V0.6z"/>
</g>
</svg>